<svg width="25" height="24" viewBox="0 0 25 24" fill="none" xmlns="http://www.w3.org/2000/svg">
<path d="M19.1838 3.00287C19.0898 3.15078 18.9408 3.25529 18.7697 3.29342C18.5986 3.33154 18.4194 3.30016 18.2714 3.20618C15.2103 1.25742 11.3293 1.74833 9.69957 2.28056C8.90854 2.53901 8.1468 2.87971 7.42685 3.29708C7.45238 3.47017 7.44734 3.6464 7.41197 3.81774C7.35326 4.10246 7.21141 4.36336 7.00438 4.56743C6.79735 4.77151 6.53444 4.90959 6.24891 4.96421C5.96338 5.01883 5.66807 4.98753 5.40034 4.87427C5.13261 4.76101 4.90448 4.57088 4.74484 4.32793C4.58519 4.08499 4.50119 3.80015 4.50346 3.50946C4.50574 3.21876 4.59419 2.93527 4.75762 2.69486C4.92106 2.45445 5.15213 2.26791 5.4216 2.15886C5.69107 2.0498 5.98684 2.02313 6.27148 2.08221C6.40406 2.10888 6.53209 2.15453 6.65164 2.21775C7.48693 1.72452 8.37377 1.32433 9.29626 1.02436C11.2632 0.379736 15.5177 -0.119436 18.9888 2.09048C19.1354 2.18586 19.2382 2.33541 19.2747 2.5064C19.3113 2.6774 19.2786 2.85591 19.1838 3.00287Z" fill="#FF8F0C"/>
<path d="M22.4549 19.1106C22.1312 19.7504 21.7552 20.3624 21.3309 20.9404C21.5029 21.2221 21.5749 21.5536 21.5353 21.8813C21.4956 22.209 21.3467 22.5138 21.1125 22.7465C20.8783 22.9791 20.5725 23.126 20.2445 23.1634C19.9166 23.2008 19.5856 23.1266 19.305 22.9527C19.0244 22.7789 18.8106 22.5155 18.6982 22.2051C18.5857 21.8948 18.5811 21.5556 18.6852 21.2423C18.7893 20.9291 18.9959 20.66 19.2717 20.4787C19.5476 20.2973 19.8765 20.2143 20.2053 20.2429C20.6066 19.7051 20.9611 19.1338 21.2648 18.5354L21.2929 18.4825C23.8284 14.0197 23.7326 9.12718 21.0417 5.69578C20.9355 5.55754 20.8882 5.38295 20.91 5.21C20.9319 5.03705 21.0212 4.87975 21.1585 4.77231C21.2958 4.66488 21.47 4.61602 21.6431 4.63635C21.8162 4.65669 21.9743 4.74459 22.083 4.88091C25.1061 8.7404 25.2483 14.1949 22.4549 19.1106Z" fill="#FF8F0C"/>
<path d="M8.26683 23.3612C8.10904 23.3601 7.95682 23.3027 7.83767 23.1992C7.71852 23.0958 7.64031 22.9531 7.61715 22.797C7.594 22.6409 7.62743 22.4817 7.71142 22.3481C7.7954 22.2145 7.9244 22.1154 8.0751 22.0686C8.12303 22.0537 12.9676 20.5248 15.6784 16.2322C15.7221 16.1536 15.7814 16.0847 15.8527 16.0298C15.924 15.9749 16.0057 15.9351 16.0929 15.9129C16.1801 15.8907 16.2709 15.8865 16.3597 15.9005C16.4486 15.9146 16.5336 15.9467 16.6097 15.9948C16.6857 16.0429 16.7511 16.106 16.8019 16.1803C16.8527 16.2545 16.8878 16.3384 16.9051 16.4267C16.9224 16.515 16.9214 16.6059 16.9023 16.6938C16.8832 16.7817 16.8464 16.8648 16.7941 16.938C13.8189 21.657 8.6784 23.2669 8.46022 23.3331C8.3975 23.3519 8.33233 23.3614 8.26683 23.3612ZM17.5495 14.4719C17.4886 14.4718 17.428 14.4635 17.3693 14.4471C17.2857 14.4235 17.2076 14.3836 17.1394 14.3298C17.0713 14.276 17.0144 14.2092 16.972 14.1334C16.9296 14.0576 16.9026 13.9741 16.8925 13.8879C16.8824 13.8016 16.8894 13.7142 16.9131 13.6306C17.0953 13.0406 17.1545 12.4195 17.0871 11.8057C17.0197 11.1919 16.8272 10.5984 16.5214 10.062C16.1908 9.49951 15.7327 9.02249 15.1841 8.66936C14.6355 8.31624 14.0116 8.09689 13.3627 8.02896C13.2743 8.02151 13.1883 7.99635 13.1099 7.95497C13.0314 7.9136 12.9621 7.85686 12.906 7.78814C12.8499 7.71942 12.8082 7.64011 12.7834 7.55495C12.7586 7.46978 12.7512 7.3805 12.7617 7.29241C12.7721 7.20432 12.8001 7.11924 12.8441 7.04222C12.8881 6.96519 12.9472 6.89781 13.0177 6.84408C13.0883 6.79035 13.169 6.75137 13.2549 6.72947C13.3409 6.70756 13.4304 6.70317 13.5181 6.71656C14.3738 6.80861 15.1958 7.10076 15.9177 7.56938C16.6396 8.038 17.241 8.66993 17.6734 9.41408C18.0621 10.1024 18.3079 10.8622 18.3959 11.6478C18.484 12.4334 18.4125 13.2287 18.1858 13.986C18.1475 14.1254 18.0645 14.2485 17.9496 14.3362C17.8346 14.424 17.6941 14.4717 17.5495 14.4719ZM2.96271 13.948C2.49424 13.9535 2.02654 13.9086 1.56767 13.8141C1.40181 13.7685 1.26023 13.6602 1.17296 13.512C1.0857 13.3637 1.05963 13.1874 1.10028 13.0202C1.14093 12.8531 1.2451 12.7084 1.39069 12.6168C1.53628 12.5253 1.71183 12.494 1.88007 12.5298C2.04535 12.5694 5.8156 13.4075 7.78253 9.7992C7.81229 9.74466 7.84204 9.69011 7.87014 9.63391C8.0153 9.34263 8.18799 9.06588 8.38584 8.80747C9.01612 8.01867 9.84262 7.40935 10.7825 7.04053C10.9463 6.97741 11.1284 6.98191 11.2888 7.05305C11.4492 7.12419 11.5748 7.25614 11.6379 7.41987C11.701 7.5836 11.6965 7.7657 11.6254 7.92612C11.5542 8.08653 11.4223 8.21211 11.2586 8.27524C10.5367 8.56283 9.90128 9.03197 9.41394 9.63722C9.26965 9.83189 9.1435 10.0394 9.03708 10.2571L8.94451 10.4306C7.30485 13.4389 4.60237 13.948 2.96271 13.948Z" fill="#FF8F0C"/>
<path d="M13.5875 23.8885C13.4444 23.8882 13.3052 23.8415 13.191 23.7553C13.0767 23.6691 12.9935 23.5482 12.9538 23.4107C12.9141 23.2732 12.9201 23.1265 12.9709 22.9927C13.0217 22.8589 13.1145 22.7452 13.2354 22.6687C20.966 17.8109 19.9081 10.915 19.8949 10.8472C19.5412 8.97451 18.8255 7.04559 15.9991 5.62576L15.9776 5.61419C13.8156 4.43237 10.3313 4.83403 8.209 6.51006C8.14084 6.56432 8.06266 6.60463 7.97893 6.62868C7.89519 6.65273 7.80754 6.66006 7.72097 6.65023C7.63441 6.64041 7.55062 6.61363 7.47441 6.57143C7.39819 6.52923 7.33103 6.47243 7.27677 6.40427C7.2225 6.33611 7.18219 6.25794 7.15814 6.1742C7.13409 6.09047 7.12677 6.00281 7.13659 5.91625C7.14641 5.82968 7.17319 5.7459 7.21539 5.66968C7.25759 5.59346 7.3144 5.52631 7.38255 5.47204C9.92965 3.46709 13.9726 3.01915 16.6024 4.44229C19.9429 6.12493 20.7991 8.49683 21.1941 10.596C21.209 10.672 22.5478 18.3646 13.9379 23.7811C13.8339 23.85 13.7122 23.8873 13.5875 23.8885ZM2.95281 11.0043C2.26678 10.9855 1.58589 10.88 0.926367 10.6902C0.756497 10.6464 0.610999 10.5369 0.521881 10.3857C0.432763 10.2346 0.407324 10.0543 0.451162 9.88443C0.494999 9.71456 0.604521 9.56906 0.755635 9.47994C0.906749 9.39082 1.08708 9.36539 1.25694 9.40922C3.28008 9.93649 4.44372 9.83732 5.5809 7.85716C5.62431 7.78195 5.68212 7.71602 5.75101 7.66315C5.8199 7.61028 5.89852 7.57149 5.9824 7.54901C6.06628 7.52652 6.15377 7.52078 6.23987 7.5321C6.32597 7.54343 6.409 7.5716 6.48421 7.61501C6.55942 7.65842 6.62534 7.71623 6.67822 7.78511C6.73109 7.854 6.76988 7.93263 6.79236 8.01651C6.81485 8.10039 6.82059 8.18788 6.80927 8.27398C6.79794 8.36008 6.76977 8.4431 6.72636 8.51832C5.61065 10.4638 4.27843 11.0043 2.95281 11.0043Z" fill="#FF8F0C"/>
<path d="M4.36655 5.32544C4.21706 5.23384 4.03731 5.20537 3.86683 5.24629C3.69635 5.2872 3.5491 5.39415 3.45747 5.54362L3.26408 5.86263C2.97482 6.33866 2.96656 6.35023 2.81614 6.49569C2.66573 6.64114 2.4459 6.64775 2.06077 6.5618L1.95168 6.53866C1.86553 6.51792 1.77608 6.5147 1.68865 6.52921C1.60123 6.54372 1.51761 6.57566 1.44277 6.62312C1.36794 6.67059 1.30341 6.73262 1.25302 6.80552C1.20263 6.87842 1.16741 6.96071 1.14945 7.04749C1.1315 7.13427 1.13117 7.22378 1.1485 7.31069C1.16582 7.3976 1.20044 7.48014 1.2503 7.55341C1.30016 7.62667 1.36424 7.68917 1.43873 7.73718C1.51322 7.78519 1.5966 7.81773 1.68392 7.83287L1.77152 7.85271C2.00363 7.91048 2.24147 7.94208 2.48061 7.94692C2.71192 7.95169 2.94186 7.91029 3.15699 7.82515C3.37211 7.74001 3.5681 7.61283 3.7335 7.45106C4.01118 7.18329 4.09217 7.0494 4.39465 6.55189L4.58639 6.23784C4.63219 6.16359 4.66284 6.081 4.67658 5.99485C4.69032 5.9087 4.68687 5.82068 4.66643 5.73587C4.646 5.65106 4.60898 5.57113 4.55751 5.50069C4.50605 5.43024 4.44115 5.37069 4.36655 5.32544Z" fill="#FF8F0C"/>
<path d="M14.6749 11.1451C14.5244 10.9103 14.3281 10.7082 14.0978 10.551C13.8674 10.3937 13.6077 10.2846 13.3342 10.23C13.0606 10.1755 12.7789 10.1766 12.5058 10.2334C12.2328 10.2902 11.974 10.4015 11.7449 10.5607C11.5158 10.7198 11.3212 10.9235 11.1727 11.1595C11.0241 11.3956 10.9247 11.6592 10.8804 11.9346C10.836 12.2099 10.8477 12.4914 10.9146 12.7622C10.9816 13.0329 11.1024 13.2874 11.27 13.5104C10.1129 15.0228 7.23691 17.3815 2.93114 17.7269C2.75579 17.7339 2.59041 17.8103 2.47138 17.9393C2.35234 18.0682 2.28941 18.2392 2.29643 18.4145C2.30344 18.5899 2.37983 18.7553 2.50878 18.8743C2.63773 18.9933 2.80868 19.0563 2.98403 19.0492H3.03692C7.8303 18.6658 11.0501 15.9848 12.3526 14.2773C12.4071 14.2939 12.4633 14.3088 12.5179 14.3203C12.6567 14.3484 12.7978 14.3627 12.9394 14.3633C13.4174 14.3631 13.8808 14.1984 14.2516 13.8968C14.6225 13.5951 14.8782 13.1751 14.9757 12.7071C15.0317 12.4398 15.0339 12.1641 14.9822 11.8959C14.9306 11.6277 14.8261 11.3725 14.6749 11.1451ZM13.6832 12.436C13.6569 12.5556 13.6018 12.6669 13.5226 12.7602C13.4435 12.8536 13.3427 12.9262 13.229 12.9717C13.1154 13.0171 12.9923 13.0341 12.8706 13.0211C12.7489 13.0081 12.6322 12.9656 12.5307 12.8971C12.4292 12.8287 12.346 12.7365 12.2884 12.6285C12.2307 12.5205 12.2003 12.4001 12.1999 12.2777C12.1994 12.1553 12.2289 12.0347 12.2858 11.9263C12.3427 11.8179 12.4252 11.725 12.5262 11.6559C12.648 11.5746 12.7913 11.5314 12.9377 11.5319C12.9894 11.5317 13.041 11.5372 13.0914 11.5484C13.1882 11.5681 13.2801 11.6067 13.3618 11.6621C13.4436 11.7174 13.5136 11.7884 13.5678 11.8709C13.622 11.9534 13.6594 12.0458 13.6778 12.1428C13.6962 12.2397 13.6952 12.3394 13.6749 12.436H13.6832Z" fill="#FF8F0C"/>
<path d="M2.97751 16.4803C2.42618 16.4817 1.87617 16.4263 1.33619 16.315C1.16797 16.2759 1.02173 16.1725 0.928737 16.027C0.835746 15.8815 0.803388 15.7053 0.838586 15.5362C0.873784 15.3672 0.973741 15.2186 1.11708 15.1222C1.26042 15.0259 1.43577 14.9895 1.60561 15.0208C3.46511 15.4059 5.13122 14.9034 5.82213 14.5447C5.89919 14.5047 5.98338 14.4802 6.0699 14.4727C6.15641 14.4652 6.24356 14.4748 6.32636 14.501C6.40917 14.5271 6.48601 14.5693 6.5525 14.6252C6.61899 14.6811 6.67382 14.7495 6.71387 14.8265C6.75391 14.9036 6.77839 14.9878 6.7859 15.0743C6.79341 15.1608 6.78381 15.248 6.75764 15.3308C6.73147 15.4136 6.68925 15.4904 6.63338 15.5569C6.57752 15.6234 6.5091 15.6782 6.43205 15.7183C5.35369 16.2323 4.17206 16.493 2.97751 16.4803Z" fill="#FF8F0C"/>
<path d="M5.31441 21.426C5.15236 21.4263 4.99583 21.3672 4.87455 21.2597C4.75326 21.1522 4.67567 21.004 4.6565 20.8431C4.63733 20.6821 4.67792 20.5198 4.77056 20.3869C4.8632 20.2539 5.00144 20.1596 5.15903 20.1219C9.05159 19.1847 10.5276 17.8524 11.8351 16.6739C11.8987 16.6116 11.9742 16.5627 12.0572 16.5303C12.1402 16.4978 12.2288 16.4825 12.3179 16.4852C12.4069 16.4878 12.4945 16.5085 12.5754 16.5459C12.6562 16.5833 12.7287 16.6366 12.7884 16.7027C12.8482 16.7688 12.8939 16.8462 12.923 16.9305C12.952 17.0147 12.9637 17.1039 12.9574 17.1928C12.9511 17.2816 12.927 17.3683 12.8863 17.4476C12.8457 17.5268 12.7895 17.5971 12.721 17.6541C11.3722 18.8739 9.69291 20.3913 5.47474 21.4062C5.42236 21.4196 5.36848 21.4263 5.31441 21.426Z" fill="#FF8F0C"/>
</svg>
